# xmcd
#
# Track frame offsets: 
#        150
#        17008
#        39736
#        65116
#        88253
#        109105
#        130370
#        153239
#        188295
#        215502
#
# Disc length: 3170 seconds
#
# Revision: 0
# Processed by: cddbd v1.5.2PL0 Copyright (c) Steve Scherf et al.
# Submitted via: ExactAudioCopy v0.95b4
#
DISCID=870c600a
DTITLE=Chris Rea - The Road To Hell And Back
DYEAR=2006
DGENRE=Blues and Rock
TTITLE0=01 - Jazzee Blues
TTITLE1=02 - That's The Way It Goes
TTITLE2=03 - Where The Blues Come From
TTITLE3=04 - Josephine
TTITLE4=05 - Work Gang
TTITLE5=06 - Head Out On The Highway
TTITLE6=07 - Easy Rider
TTITLE7=08 - 'Til The Morning
TTITLE8=09 - Stony Road
TTITLE9=10 - KKK Blues
EXTD=
EXTT0=
EXTT1=
EXTT2=
EXTT3=
EXTT4=
EXTT5=
EXTT6=
EXTT7=
EXTT8=
EXTT9=
PLAYORDER=
